<mxfile host="Electron" agent="Mozilla/5.0 (Windows NT 10.0; Win64; x64) AppleWebKit/537.36 (KHTML, like Gecko) draw.io/24.7.17 Chrome/128.0.6613.36 Electron/32.0.1 Safari/537.36" version="24.7.17" pages="4">
  <diagram name="Criar Ambiente" id="GHMMwksWFdpA9J9G9nvl">
    <mxGraphModel dx="1434" dy="2005" grid="1" gridSize="10" guides="1" tooltips="1" connect="1" arrows="1" fold="1" page="1" pageScale="1" pageWidth="827" pageHeight="1169" math="0" shadow="0">
      <root>
        <mxCell id="0" />
        <mxCell id="1" parent="0" />
        <mxCell id="jO4pM420rOmhuDSLLYiO-24" value="" style="rounded=0;whiteSpace=wrap;html=1;fillColor=#dae8fc;strokeColor=#6c8ebf;" parent="1" vertex="1">
          <mxGeometry x="320" y="70" width="390" height="290" as="geometry" />
        </mxCell>
        <mxCell id="jO4pM420rOmhuDSLLYiO-2" value="xvajobsfiles&lt;div&gt;4 - cria o storage&amp;nbsp;&lt;/div&gt;&lt;div&gt;para o files do job&lt;/div&gt;" style="image;aspect=fixed;html=1;points=[];align=center;fontSize=12;image=img/lib/azure2/storage/Storage_Accounts.svg;" parent="1" vertex="1">
          <mxGeometry x="470" y="226" width="65" height="52" as="geometry" />
        </mxCell>
        <mxCell id="jO4pM420rOmhuDSLLYiO-3" value="xva-azure-batch-poc&lt;div&gt;1 - baixa o fonte do projeto&lt;/div&gt;" style="dashed=0;outlineConnect=0;html=1;align=center;labelPosition=center;verticalLabelPosition=bottom;verticalAlign=top;shape=mxgraph.weblogos.github" parent="1" vertex="1">
          <mxGeometry x="67.5" y="-30" width="75" height="75" as="geometry" />
        </mxCell>
        <mxCell id="jO4pM420rOmhuDSLLYiO-32" style="edgeStyle=orthogonalEdgeStyle;rounded=0;orthogonalLoop=1;jettySize=auto;html=1;" parent="1" source="jO4pM420rOmhuDSLLYiO-6" target="jO4pM420rOmhuDSLLYiO-3" edge="1">
          <mxGeometry relative="1" as="geometry" />
        </mxCell>
        <mxCell id="jO4pM420rOmhuDSLLYiO-33" style="edgeStyle=orthogonalEdgeStyle;rounded=0;orthogonalLoop=1;jettySize=auto;html=1;" parent="1" source="jO4pM420rOmhuDSLLYiO-6" target="jO4pM420rOmhuDSLLYiO-8" edge="1">
          <mxGeometry relative="1" as="geometry">
            <Array as="points">
              <mxPoint x="240" y="160" />
              <mxPoint x="240" y="77" />
            </Array>
          </mxGeometry>
        </mxCell>
        <mxCell id="jO4pM420rOmhuDSLLYiO-34" style="edgeStyle=orthogonalEdgeStyle;rounded=0;orthogonalLoop=1;jettySize=auto;html=1;" parent="1" source="jO4pM420rOmhuDSLLYiO-6" target="jO4pM420rOmhuDSLLYiO-9" edge="1">
          <mxGeometry relative="1" as="geometry" />
        </mxCell>
        <mxCell id="jO4pM420rOmhuDSLLYiO-35" style="edgeStyle=orthogonalEdgeStyle;rounded=0;orthogonalLoop=1;jettySize=auto;html=1;" parent="1" source="jO4pM420rOmhuDSLLYiO-6" target="jO4pM420rOmhuDSLLYiO-2" edge="1">
          <mxGeometry relative="1" as="geometry" />
        </mxCell>
        <mxCell id="jO4pM420rOmhuDSLLYiO-36" style="edgeStyle=orthogonalEdgeStyle;rounded=0;orthogonalLoop=1;jettySize=auto;html=1;" parent="1" source="jO4pM420rOmhuDSLLYiO-6" target="jO4pM420rOmhuDSLLYiO-10" edge="1">
          <mxGeometry relative="1" as="geometry" />
        </mxCell>
        <mxCell id="jO4pM420rOmhuDSLLYiO-37" style="edgeStyle=orthogonalEdgeStyle;rounded=0;orthogonalLoop=1;jettySize=auto;html=1;" parent="1" source="jO4pM420rOmhuDSLLYiO-6" target="jO4pM420rOmhuDSLLYiO-18" edge="1">
          <mxGeometry relative="1" as="geometry">
            <Array as="points">
              <mxPoint x="100" y="403" />
            </Array>
          </mxGeometry>
        </mxCell>
        <mxCell id="jO4pM420rOmhuDSLLYiO-6" value="" style="points=[[0.35,0,0],[0.98,0.51,0],[1,0.71,0],[0.67,1,0],[0,0.795,0],[0,0.65,0]];verticalLabelPosition=bottom;sketch=0;html=1;verticalAlign=top;aspect=fixed;align=center;pointerEvents=1;shape=mxgraph.cisco19.user;fillColor=#005073;strokeColor=none;" parent="1" vertex="1">
          <mxGeometry x="80" y="150" width="50" height="50" as="geometry" />
        </mxCell>
        <mxCell id="jO4pM420rOmhuDSLLYiO-8" value="xva-azure-batch-poc&lt;div&gt;2 - cria o rg&lt;/div&gt;" style="image;aspect=fixed;html=1;points=[];align=center;fontSize=12;image=img/lib/azure2/general/Resource_Groups.svg;" parent="1" vertex="1">
          <mxGeometry x="290" y="45" width="68" height="64" as="geometry" />
        </mxCell>
        <mxCell id="jO4pM420rOmhuDSLLYiO-9" value="xvabatchaccount&lt;div&gt;3 - cria o storage&amp;nbsp;&lt;/div&gt;&lt;div&gt;para o batch&lt;/div&gt;" style="image;aspect=fixed;html=1;points=[];align=center;fontSize=12;image=img/lib/azure2/storage/Storage_Accounts.svg;" parent="1" vertex="1">
          <mxGeometry x="350" y="226" width="65" height="52" as="geometry" />
        </mxCell>
        <mxCell id="jO4pM420rOmhuDSLLYiO-18" value="input/monte_carlo_input.json&lt;div&gt;6 - faz o upload do arquivo&lt;/div&gt;&lt;div&gt;que ira ser procesado no input/&lt;/div&gt;" style="dashed=0;outlineConnect=0;html=1;align=center;labelPosition=center;verticalLabelPosition=bottom;verticalAlign=top;shape=mxgraph.weblogos.json" parent="1" vertex="1">
          <mxGeometry x="477.5" y="380" width="50" height="45.8" as="geometry" />
        </mxCell>
        <mxCell id="jO4pM420rOmhuDSLLYiO-29" style="edgeStyle=orthogonalEdgeStyle;rounded=0;orthogonalLoop=1;jettySize=auto;html=1;entryX=0.492;entryY=0.904;entryDx=0;entryDy=0;entryPerimeter=0;" parent="1" source="jO4pM420rOmhuDSLLYiO-18" target="jO4pM420rOmhuDSLLYiO-2" edge="1">
          <mxGeometry relative="1" as="geometry" />
        </mxCell>
        <mxCell id="jO4pM420rOmhuDSLLYiO-10" value="xvabatchaccount&lt;div&gt;5 - cria o&amp;nbsp;&lt;/div&gt;&lt;div&gt;batch account&lt;/div&gt;" style="image;aspect=fixed;html=1;points=[];align=center;fontSize=12;image=img/lib/azure2/compute/Batch_Accounts.svg;" parent="1" vertex="1">
          <mxGeometry x="598" y="220" width="68" height="64" as="geometry" />
        </mxCell>
      </root>
    </mxGraphModel>
  </diagram>
  <diagram id="RlB30Z5cnpvB07j8Nt4P" name="Configs">
    <mxGraphModel dx="1434" dy="836" grid="1" gridSize="10" guides="1" tooltips="1" connect="1" arrows="1" fold="1" page="1" pageScale="1" pageWidth="827" pageHeight="1169" math="0" shadow="0">
      <root>
        <mxCell id="0" />
        <mxCell id="1" parent="0" />
        <mxCell id="eITKolT-GINEDYZ5hz__-10" value="" style="points=[[0.35,0,0],[0.98,0.51,0],[1,0.71,0],[0.67,1,0],[0,0.795,0],[0,0.65,0]];verticalLabelPosition=bottom;sketch=0;html=1;verticalAlign=top;aspect=fixed;align=center;pointerEvents=1;shape=mxgraph.cisco19.user;fillColor=#005073;strokeColor=none;" vertex="1" parent="1">
          <mxGeometry x="80" y="150" width="50" height="50" as="geometry" />
        </mxCell>
        <mxCell id="eITKolT-GINEDYZ5hz__-20" value="1 - cria o&amp;nbsp;&lt;span style=&quot;text-wrap: wrap;&quot;&gt;srv/.env&lt;/span&gt;&lt;div&gt;&lt;div&gt;&lt;span style=&quot;text-wrap: wrap;&quot;&gt;com as chaves abaixo&amp;nbsp;&lt;/span&gt;&lt;/div&gt;&lt;div&gt;&lt;span style=&quot;text-wrap: wrap;&quot;&gt;e adiciona os valores&amp;nbsp;&lt;/span&gt;&lt;/div&gt;&lt;div&gt;&lt;span style=&quot;text-wrap: wrap;&quot;&gt;do storage&amp;nbsp;&lt;/span&gt;&lt;span style=&quot;background-color: rgb(255, 255, 255);&quot;&gt;xvabatchaccount&lt;/span&gt;&lt;/div&gt;&lt;/div&gt;&lt;div&gt;&lt;span style=&quot;background-color: rgb(255, 255, 255);&quot;&gt;e batch&amp;nbsp;&lt;/span&gt;&lt;span style=&quot;background-color: rgb(255, 255, 255);&quot;&gt;xvabatchaccount&lt;/span&gt;&lt;/div&gt;&lt;div&gt;&lt;span style=&quot;background-color: rgb(255, 255, 255);&quot;&gt;&lt;br&gt;&lt;/span&gt;&lt;/div&gt;&lt;div&gt;&lt;span style=&quot;background-color: rgb(255, 255, 255);&quot;&gt;&lt;div&gt;BATCH_ACCOUNT_NAME=&lt;/div&gt;&lt;div&gt;BATCH_ACCOUNT_KEY=&lt;/div&gt;&lt;div&gt;BATCH_ACCOUNT_URL=&lt;/div&gt;&lt;div&gt;STORAGE_ACCOUNT_NAME=&lt;/div&gt;&lt;div&gt;STORAGE_ACCOUNT_KEY=&lt;/div&gt;&lt;/span&gt;&lt;/div&gt;" style="verticalLabelPosition=bottom;html=1;verticalAlign=top;align=center;strokeColor=none;fillColor=#00BEF2;shape=mxgraph.azure.cloud_services_configuration_file;pointerEvents=1;" vertex="1" parent="1">
          <mxGeometry x="370" y="30" width="47.5" height="50" as="geometry" />
        </mxCell>
        <mxCell id="eITKolT-GINEDYZ5hz__-21" value="&lt;div&gt;&lt;span style=&quot;text-wrap: wrap;&quot;&gt;2 - cria src-montecarlo-app/.env&lt;/span&gt;&lt;/div&gt;&lt;div&gt;&lt;span style=&quot;text-wrap: wrap;&quot;&gt;com as chaves abaixo&amp;nbsp;&lt;/span&gt;&lt;/div&gt;&lt;div&gt;&lt;span style=&quot;text-wrap: wrap;&quot;&gt;e adiciona os valores do storage&amp;nbsp;&lt;/span&gt;&lt;span style=&quot;background-color: rgb(255, 255, 255);&quot;&gt;xvajobsfiles&lt;/span&gt;&lt;span style=&quot;text-wrap: wrap;&quot;&gt;&lt;br&gt;&lt;/span&gt;&lt;div style=&quot;text-wrap: wrap;&quot;&gt;&lt;br&gt;&lt;/div&gt;&lt;div style=&quot;text-wrap: wrap;&quot;&gt;&lt;div&gt;STORAGE_ACCOUNT_NAME=&lt;/div&gt;&lt;div&gt;STORAGE_ACCOUNT_KEY=&lt;/div&gt;&lt;/div&gt;&lt;/div&gt;" style="verticalLabelPosition=bottom;html=1;verticalAlign=top;align=center;strokeColor=none;fillColor=#00BEF2;shape=mxgraph.azure.cloud_services_configuration_file;pointerEvents=1;" vertex="1" parent="1">
          <mxGeometry x="370" y="290" width="47.5" height="50" as="geometry" />
        </mxCell>
        <mxCell id="-2LmU-mjN6J15pGxRJ6X-1" style="edgeStyle=orthogonalEdgeStyle;rounded=0;orthogonalLoop=1;jettySize=auto;html=1;entryX=0;entryY=0.5;entryDx=0;entryDy=0;entryPerimeter=0;" edge="1" parent="1" source="eITKolT-GINEDYZ5hz__-10" target="eITKolT-GINEDYZ5hz__-20">
          <mxGeometry relative="1" as="geometry" />
        </mxCell>
        <mxCell id="-2LmU-mjN6J15pGxRJ6X-2" style="edgeStyle=orthogonalEdgeStyle;rounded=0;orthogonalLoop=1;jettySize=auto;html=1;entryX=0;entryY=0.5;entryDx=0;entryDy=0;entryPerimeter=0;" edge="1" parent="1" source="eITKolT-GINEDYZ5hz__-10" target="eITKolT-GINEDYZ5hz__-21">
          <mxGeometry relative="1" as="geometry" />
        </mxCell>
      </root>
    </mxGraphModel>
  </diagram>
  <diagram id="g_KwB1qCPpym94kgi7Hm" name="Batch application">
    <mxGraphModel dx="1434" dy="2005" grid="1" gridSize="10" guides="1" tooltips="1" connect="1" arrows="1" fold="1" page="1" pageScale="1" pageWidth="827" pageHeight="1169" math="0" shadow="0">
      <root>
        <mxCell id="0" />
        <mxCell id="1" parent="0" />
        <mxCell id="z9dt2_U-2a1yjSh4QDDs-3" value="xva-azure-batch-poc" style="dashed=0;outlineConnect=0;html=1;align=center;labelPosition=center;verticalLabelPosition=bottom;verticalAlign=top;shape=mxgraph.weblogos.github" vertex="1" parent="1">
          <mxGeometry x="67.5" y="-30" width="75" height="75" as="geometry" />
        </mxCell>
        <mxCell id="z9dt2_U-2a1yjSh4QDDs-4" style="edgeStyle=orthogonalEdgeStyle;rounded=0;orthogonalLoop=1;jettySize=auto;html=1;" edge="1" parent="1" source="z9dt2_U-2a1yjSh4QDDs-10" target="z9dt2_U-2a1yjSh4QDDs-3">
          <mxGeometry relative="1" as="geometry" />
        </mxCell>
        <mxCell id="z9dt2_U-2a1yjSh4QDDs-5" style="edgeStyle=orthogonalEdgeStyle;rounded=0;orthogonalLoop=1;jettySize=auto;html=1;" edge="1" parent="1" source="z9dt2_U-2a1yjSh4QDDs-10" target="z9dt2_U-2a1yjSh4QDDs-15">
          <mxGeometry relative="1" as="geometry">
            <Array as="points">
              <mxPoint x="240" y="160" />
              <mxPoint x="240" y="77" />
            </Array>
            <mxPoint x="290" y="77" as="targetPoint" />
          </mxGeometry>
        </mxCell>
        <mxCell id="z9dt2_U-2a1yjSh4QDDs-10" value="" style="points=[[0.35,0,0],[0.98,0.51,0],[1,0.71,0],[0.67,1,0],[0,0.795,0],[0,0.65,0]];verticalLabelPosition=bottom;sketch=0;html=1;verticalAlign=top;aspect=fixed;align=center;pointerEvents=1;shape=mxgraph.cisco19.user;fillColor=#005073;strokeColor=none;" vertex="1" parent="1">
          <mxGeometry x="80" y="150" width="50" height="50" as="geometry" />
        </mxCell>
        <mxCell id="z9dt2_U-2a1yjSh4QDDs-15" value="xvabatchaccount&lt;div&gt;2 - criar o Application &quot;montecarlo_app&quot;&lt;/div&gt;&lt;div&gt;com o zip &quot;&lt;span style=&quot;background-color: rgb(251, 251, 251);&quot;&gt;montecarlo-app.zip&lt;/span&gt;&quot;&lt;/div&gt;" style="image;aspect=fixed;html=1;points=[];align=center;fontSize=12;image=img/lib/azure2/compute/Batch_Accounts.svg;" vertex="1" parent="1">
          <mxGeometry x="340" y="45" width="68" height="64" as="geometry" />
        </mxCell>
        <mxCell id="z9dt2_U-2a1yjSh4QDDs-16" value="1 - executar o&amp;nbsp;&lt;div&gt;montecarlo_app_apppackage.py&lt;/div&gt;&lt;div&gt;para gerar o zip&lt;/div&gt;" style="sketch=0;aspect=fixed;pointerEvents=1;shadow=0;dashed=0;html=1;strokeColor=none;labelPosition=center;verticalLabelPosition=bottom;verticalAlign=top;align=center;fillColor=#00188D;shape=mxgraph.mscae.enterprise.code_file" vertex="1" parent="1">
          <mxGeometry x="81" y="310" width="49" height="50" as="geometry" />
        </mxCell>
        <mxCell id="z9dt2_U-2a1yjSh4QDDs-18" style="edgeStyle=orthogonalEdgeStyle;rounded=0;orthogonalLoop=1;jettySize=auto;html=1;entryX=0.5;entryY=0;entryDx=0;entryDy=0;entryPerimeter=0;" edge="1" parent="1" source="z9dt2_U-2a1yjSh4QDDs-10" target="z9dt2_U-2a1yjSh4QDDs-16">
          <mxGeometry relative="1" as="geometry" />
        </mxCell>
        <UserObject label="montecarlo-app.zip" link="montecarlo-app.zip" id="z9dt2_U-2a1yjSh4QDDs-19">
          <mxCell style="verticalLabelPosition=bottom;html=1;verticalAlign=top;align=center;strokeColor=none;fillColor=#00BEF2;shape=mxgraph.azure.cloud_service_package_file;" vertex="1" parent="1">
            <mxGeometry x="270" y="310" width="42.5" height="50" as="geometry" />
          </mxCell>
        </UserObject>
        <mxCell id="z9dt2_U-2a1yjSh4QDDs-22" style="edgeStyle=orthogonalEdgeStyle;rounded=0;orthogonalLoop=1;jettySize=auto;html=1;entryX=0;entryY=0.5;entryDx=0;entryDy=0;entryPerimeter=0;" edge="1" parent="1" source="z9dt2_U-2a1yjSh4QDDs-16" target="z9dt2_U-2a1yjSh4QDDs-19">
          <mxGeometry relative="1" as="geometry" />
        </mxCell>
      </root>
    </mxGraphModel>
  </diagram>
  <diagram id="AiFhw9Nf0LlxHzqsB-ok" name="Execução da aplicação">
    <mxGraphModel dx="2876" dy="1194" grid="1" gridSize="10" guides="1" tooltips="1" connect="1" arrows="1" fold="1" page="1" pageScale="1" pageWidth="827" pageHeight="1169" math="0" shadow="0">
      <root>
        <mxCell id="0" />
        <mxCell id="1" parent="0" />
        <mxCell id="lzGrhlmIn-jtO5XPurMd-31" style="edgeStyle=orthogonalEdgeStyle;rounded=0;orthogonalLoop=1;jettySize=auto;html=1;fontSize=12;labelBackgroundColor=none;" parent="1" source="lUo_39sWFaKYksOA6hn1-1" target="lzGrhlmIn-jtO5XPurMd-30" edge="1">
          <mxGeometry relative="1" as="geometry">
            <Array as="points">
              <mxPoint x="150" y="1022" />
            </Array>
          </mxGeometry>
        </mxCell>
        <mxCell id="lUo_39sWFaKYksOA6hn1-1" value="orchestrator" style="verticalLabelPosition=bottom;html=1;verticalAlign=top;align=center;strokeColor=none;fillColor=#00BEF2;shape=mxgraph.azure.cloud_services_configuration_file;pointerEvents=1;fontSize=12;labelBackgroundColor=none;" parent="1" vertex="1">
          <mxGeometry x="140" y="550" width="40" height="50" as="geometry" />
        </mxCell>
        <mxCell id="lhgWdn7ch6hGwZRD-2z1-1" style="edgeStyle=orthogonalEdgeStyle;rounded=0;orthogonalLoop=1;jettySize=auto;html=1;fontSize=12;labelBackgroundColor=none;" parent="1" source="qe7TXdKY6yJARlXBFdF9-1" target="8bjbVzgU6vGTRSkHChVU-1" edge="1">
          <mxGeometry relative="1" as="geometry">
            <Array as="points">
              <mxPoint x="280" y="376" />
            </Array>
          </mxGeometry>
        </mxCell>
        <mxCell id="qe7TXdKY6yJARlXBFdF9-1" value="client" style="verticalLabelPosition=bottom;html=1;verticalAlign=top;align=center;strokeColor=none;fillColor=#00BEF2;shape=mxgraph.azure.cloud_services_configuration_file;pointerEvents=1;fontSize=12;labelBackgroundColor=none;" parent="1" vertex="1">
          <mxGeometry x="260" y="480" width="40" height="50" as="geometry" />
        </mxCell>
        <mxCell id="lhgWdn7ch6hGwZRD-2z1-12" style="edgeStyle=orthogonalEdgeStyle;rounded=0;orthogonalLoop=1;jettySize=auto;html=1;fontSize=12;labelBackgroundColor=none;" parent="1" source="qe7TXdKY6yJARlXBFdF9-2" target="lhgWdn7ch6hGwZRD-2z1-11" edge="1">
          <mxGeometry relative="1" as="geometry" />
        </mxCell>
        <mxCell id="lzGrhlmIn-jtO5XPurMd-2" style="edgeStyle=orthogonalEdgeStyle;rounded=0;orthogonalLoop=1;jettySize=auto;html=1;fontSize=12;labelBackgroundColor=none;" parent="1" source="qe7TXdKY6yJARlXBFdF9-2" target="lzGrhlmIn-jtO5XPurMd-1" edge="1">
          <mxGeometry relative="1" as="geometry">
            <Array as="points">
              <mxPoint x="280" y="722" />
            </Array>
          </mxGeometry>
        </mxCell>
        <mxCell id="qe7TXdKY6yJARlXBFdF9-2" value="worker" style="verticalLabelPosition=bottom;html=1;verticalAlign=top;align=center;strokeColor=none;fillColor=#00BEF2;shape=mxgraph.azure.cloud_services_configuration_file;pointerEvents=1;fontSize=12;labelBackgroundColor=none;" parent="1" vertex="1">
          <mxGeometry x="260" y="610" width="40" height="50" as="geometry" />
        </mxCell>
        <mxCell id="lzGrhlmIn-jtO5XPurMd-6" style="edgeStyle=orthogonalEdgeStyle;rounded=0;orthogonalLoop=1;jettySize=auto;html=1;fontSize=12;labelBackgroundColor=none;" parent="1" source="qe7TXdKY6yJARlXBFdF9-3" target="lzGrhlmIn-jtO5XPurMd-3" edge="1">
          <mxGeometry relative="1" as="geometry" />
        </mxCell>
        <mxCell id="lzGrhlmIn-jtO5XPurMd-8" style="edgeStyle=orthogonalEdgeStyle;rounded=0;orthogonalLoop=1;jettySize=auto;html=1;fontSize=12;labelBackgroundColor=none;" parent="1" source="qe7TXdKY6yJARlXBFdF9-3" target="lzGrhlmIn-jtO5XPurMd-7" edge="1">
          <mxGeometry relative="1" as="geometry">
            <Array as="points">
              <mxPoint x="280" y="896" />
            </Array>
          </mxGeometry>
        </mxCell>
        <mxCell id="qe7TXdKY6yJARlXBFdF9-3" value="agreggator" style="verticalLabelPosition=bottom;html=1;verticalAlign=top;align=center;strokeColor=none;fillColor=#00BEF2;shape=mxgraph.azure.cloud_services_configuration_file;pointerEvents=1;fontSize=12;labelBackgroundColor=none;" parent="1" vertex="1">
          <mxGeometry x="260" y="800" width="40" height="50" as="geometry" />
        </mxCell>
        <mxCell id="kDm-gjHPZS9bzdLhj900-3" style="edgeStyle=orthogonalEdgeStyle;rounded=0;orthogonalLoop=1;jettySize=auto;html=1;fontSize=12;labelBackgroundColor=none;" edge="1" parent="1" source="JQ83JEl8OgG2uB4ZriYD-1" target="kDm-gjHPZS9bzdLhj900-2">
          <mxGeometry relative="1" as="geometry">
            <Array as="points">
              <mxPoint x="20" y="1136" />
            </Array>
          </mxGeometry>
        </mxCell>
        <mxCell id="6sl3xVN-tXtJ1G1_XXmB-4" style="edgeStyle=orthogonalEdgeStyle;rounded=0;orthogonalLoop=1;jettySize=auto;html=1;fontSize=12;labelBackgroundColor=none;" edge="1" parent="1" source="JQ83JEl8OgG2uB4ZriYD-1" target="6sl3xVN-tXtJ1G1_XXmB-1">
          <mxGeometry relative="1" as="geometry">
            <Array as="points">
              <mxPoint x="15" y="223" />
            </Array>
          </mxGeometry>
        </mxCell>
        <mxCell id="JQ83JEl8OgG2uB4ZriYD-1" value="" style="points=[[0.35,0,0],[0.98,0.51,0],[1,0.71,0],[0.67,1,0],[0,0.795,0],[0,0.65,0]];verticalLabelPosition=bottom;sketch=0;html=1;verticalAlign=top;aspect=fixed;align=center;pointerEvents=1;shape=mxgraph.cisco19.user;fillColor=#005073;strokeColor=none;fontSize=12;labelBackgroundColor=none;" parent="1" vertex="1">
          <mxGeometry x="-10" y="550" width="50" height="50" as="geometry" />
        </mxCell>
        <mxCell id="JQ83JEl8OgG2uB4ZriYD-2" style="edgeStyle=orthogonalEdgeStyle;rounded=0;orthogonalLoop=1;jettySize=auto;html=1;entryX=0;entryY=0.5;entryDx=0;entryDy=0;entryPerimeter=0;fontSize=12;labelBackgroundColor=none;" parent="1" source="JQ83JEl8OgG2uB4ZriYD-1" target="lUo_39sWFaKYksOA6hn1-1" edge="1">
          <mxGeometry relative="1" as="geometry" />
        </mxCell>
        <mxCell id="JQ83JEl8OgG2uB4ZriYD-3" style="edgeStyle=orthogonalEdgeStyle;rounded=0;orthogonalLoop=1;jettySize=auto;html=1;entryX=0;entryY=0.5;entryDx=0;entryDy=0;entryPerimeter=0;fontSize=12;labelBackgroundColor=none;" parent="1" source="lUo_39sWFaKYksOA6hn1-1" target="qe7TXdKY6yJARlXBFdF9-1" edge="1">
          <mxGeometry relative="1" as="geometry">
            <Array as="points">
              <mxPoint x="160" y="505" />
            </Array>
          </mxGeometry>
        </mxCell>
        <mxCell id="8bjbVzgU6vGTRSkHChVU-1" value="xvajobsfiles&lt;div style=&quot;font-size: 12px;&quot;&gt;&lt;span style=&quot;font-size: 12px;&quot;&gt;input/monte_carlo_input.json&lt;/span&gt;&lt;/div&gt;" style="image;aspect=fixed;html=1;points=[];align=center;fontSize=12;image=img/lib/azure2/storage/Storage_Accounts.svg;labelBackgroundColor=none;" parent="1" vertex="1">
          <mxGeometry x="570" y="350" width="65" height="52" as="geometry" />
        </mxCell>
        <mxCell id="lhgWdn7ch6hGwZRD-2z1-2" value="chunks do arquivo de input" style="verticalLabelPosition=bottom;html=1;verticalAlign=top;align=center;strokeColor=none;fillColor=#00BEF2;shape=mxgraph.azure.code_file;pointerEvents=1;fontSize=12;labelBackgroundColor=none;" parent="1" vertex="1">
          <mxGeometry x="405" y="490" width="27.5" height="30" as="geometry" />
        </mxCell>
        <mxCell id="lhgWdn7ch6hGwZRD-2z1-4" value="" style="verticalLabelPosition=bottom;html=1;verticalAlign=top;align=center;strokeColor=none;fillColor=#00BEF2;shape=mxgraph.azure.code_file;pointerEvents=1;fontSize=12;labelBackgroundColor=none;" parent="1" vertex="1">
          <mxGeometry x="432.5" y="490" width="27.5" height="30" as="geometry" />
        </mxCell>
        <mxCell id="lhgWdn7ch6hGwZRD-2z1-5" value="" style="verticalLabelPosition=bottom;html=1;verticalAlign=top;align=center;strokeColor=none;fillColor=#00BEF2;shape=mxgraph.azure.code_file;pointerEvents=1;fontSize=12;labelBackgroundColor=none;" parent="1" vertex="1">
          <mxGeometry x="377.5" y="490" width="27.5" height="30" as="geometry" />
        </mxCell>
        <mxCell id="lhgWdn7ch6hGwZRD-2z1-6" value="" style="verticalLabelPosition=bottom;html=1;verticalAlign=top;align=center;strokeColor=none;fillColor=#00BEF2;shape=mxgraph.azure.code_file;pointerEvents=1;fontSize=12;labelBackgroundColor=none;" parent="1" vertex="1">
          <mxGeometry x="350" y="490" width="27.5" height="30" as="geometry" />
        </mxCell>
        <mxCell id="lhgWdn7ch6hGwZRD-2z1-7" style="edgeStyle=orthogonalEdgeStyle;rounded=0;orthogonalLoop=1;jettySize=auto;html=1;entryX=0;entryY=0.5;entryDx=0;entryDy=0;entryPerimeter=0;fontSize=12;labelBackgroundColor=none;" parent="1" source="qe7TXdKY6yJARlXBFdF9-1" target="lhgWdn7ch6hGwZRD-2z1-6" edge="1">
          <mxGeometry relative="1" as="geometry" />
        </mxCell>
        <mxCell id="lhgWdn7ch6hGwZRD-2z1-9" style="edgeStyle=orthogonalEdgeStyle;rounded=0;orthogonalLoop=1;jettySize=auto;html=1;entryX=0;entryY=0.5;entryDx=0;entryDy=0;entryPerimeter=0;fontSize=12;labelBackgroundColor=none;" parent="1" source="lUo_39sWFaKYksOA6hn1-1" target="qe7TXdKY6yJARlXBFdF9-2" edge="1">
          <mxGeometry relative="1" as="geometry" />
        </mxCell>
        <mxCell id="lhgWdn7ch6hGwZRD-2z1-10" style="edgeStyle=orthogonalEdgeStyle;rounded=0;orthogonalLoop=1;jettySize=auto;html=1;entryX=0.5;entryY=1;entryDx=0;entryDy=0;entryPerimeter=0;fontSize=12;labelBackgroundColor=none;" parent="1" source="qe7TXdKY6yJARlXBFdF9-2" target="lhgWdn7ch6hGwZRD-2z1-6" edge="1">
          <mxGeometry relative="1" as="geometry">
            <Array as="points">
              <mxPoint x="364" y="620" />
            </Array>
          </mxGeometry>
        </mxCell>
        <mxCell id="lhgWdn7ch6hGwZRD-2z1-11" value="xvajobsfiles&lt;div style=&quot;font-size: 12px;&quot;&gt;&lt;span style=&quot;font-size: 12px;&quot;&gt;temp/&lt;/span&gt;monte_carlo_input_part_X.json&lt;/div&gt;" style="image;aspect=fixed;html=1;points=[];align=center;fontSize=12;image=img/lib/azure2/storage/Storage_Accounts.svg;labelBackgroundColor=none;" parent="1" vertex="1">
          <mxGeometry x="570" y="590" width="65" height="52" as="geometry" />
        </mxCell>
        <mxCell id="lzGrhlmIn-jtO5XPurMd-4" style="edgeStyle=orthogonalEdgeStyle;rounded=0;orthogonalLoop=1;jettySize=auto;html=1;fontSize=12;labelBackgroundColor=none;" parent="1" source="lzGrhlmIn-jtO5XPurMd-1" target="lzGrhlmIn-jtO5XPurMd-3" edge="1">
          <mxGeometry relative="1" as="geometry" />
        </mxCell>
        <mxCell id="lzGrhlmIn-jtO5XPurMd-1" value="xvabatchaccount" style="image;aspect=fixed;html=1;points=[];align=center;fontSize=12;image=img/lib/azure2/compute/Batch_Accounts.svg;labelBackgroundColor=none;" parent="1" vertex="1">
          <mxGeometry x="384.75" y="690" width="68" height="64" as="geometry" />
        </mxCell>
        <mxCell id="lzGrhlmIn-jtO5XPurMd-3" value="xvajobsfiles&lt;div style=&quot;font-size: 12px;&quot;&gt;&lt;span style=&quot;font-size: 12px;&quot;&gt;temp/&lt;/span&gt;monte_carlo_result_part_X.json&lt;/div&gt;" style="image;aspect=fixed;html=1;points=[];align=center;fontSize=12;image=img/lib/azure2/storage/Storage_Accounts.svg;labelBackgroundColor=none;" parent="1" vertex="1">
          <mxGeometry x="570" y="696" width="65" height="52" as="geometry" />
        </mxCell>
        <mxCell id="lzGrhlmIn-jtO5XPurMd-5" style="edgeStyle=orthogonalEdgeStyle;rounded=0;orthogonalLoop=1;jettySize=auto;html=1;entryX=0;entryY=0.5;entryDx=0;entryDy=0;entryPerimeter=0;fontSize=12;labelBackgroundColor=none;" parent="1" source="lUo_39sWFaKYksOA6hn1-1" target="qe7TXdKY6yJARlXBFdF9-3" edge="1">
          <mxGeometry relative="1" as="geometry">
            <Array as="points">
              <mxPoint x="160" y="825" />
            </Array>
          </mxGeometry>
        </mxCell>
        <mxCell id="lzGrhlmIn-jtO5XPurMd-7" value="xvajobsfiles&lt;div style=&quot;font-size: 12px;&quot;&gt;&lt;span style=&quot;font-size: 12px;&quot;&gt;output/&lt;/span&gt;monte_carlo_result_aggregated.json&lt;/div&gt;" style="image;aspect=fixed;html=1;points=[];align=center;fontSize=12;image=img/lib/azure2/storage/Storage_Accounts.svg;labelBackgroundColor=none;" parent="1" vertex="1">
          <mxGeometry x="570" y="870" width="65" height="52" as="geometry" />
        </mxCell>
        <mxCell id="lzGrhlmIn-jtO5XPurMd-10" value="2" style="ellipse;whiteSpace=wrap;html=1;aspect=fixed;fillColor=#f8cecc;strokeColor=#b85450;fontSize=12;labelBackgroundColor=none;" parent="1" vertex="1">
          <mxGeometry x="70" y="540" width="30" height="30" as="geometry" />
        </mxCell>
        <mxCell id="lzGrhlmIn-jtO5XPurMd-11" value="4" style="ellipse;whiteSpace=wrap;html=1;aspect=fixed;fillColor=#dae8fc;strokeColor=#6c8ebf;fontSize=12;labelBackgroundColor=none;" parent="1" vertex="1">
          <mxGeometry x="422.75" y="340" width="30" height="30" as="geometry" />
        </mxCell>
        <mxCell id="lzGrhlmIn-jtO5XPurMd-13" value="3" style="ellipse;whiteSpace=wrap;html=1;aspect=fixed;fillColor=#f5f5f5;fontColor=#333333;strokeColor=#666666;fontSize=12;labelBackgroundColor=none;" parent="1" vertex="1">
          <mxGeometry x="190" y="470" width="30" height="30" as="geometry" />
        </mxCell>
        <mxCell id="lzGrhlmIn-jtO5XPurMd-15" value="5" style="ellipse;whiteSpace=wrap;html=1;aspect=fixed;fillColor=#dae8fc;strokeColor=#6c8ebf;fontSize=12;labelBackgroundColor=none;" parent="1" vertex="1">
          <mxGeometry x="320" y="460" width="30" height="30" as="geometry" />
        </mxCell>
        <mxCell id="lzGrhlmIn-jtO5XPurMd-18" value="14" style="ellipse;whiteSpace=wrap;html=1;aspect=fixed;fillColor=#f5f5f5;fontColor=#333333;strokeColor=#666666;fontSize=12;labelBackgroundColor=none;" parent="1" vertex="1">
          <mxGeometry x="250" y="990" width="30" height="30" as="geometry" />
        </mxCell>
        <mxCell id="lzGrhlmIn-jtO5XPurMd-19" value="6" style="ellipse;whiteSpace=wrap;html=1;aspect=fixed;fillColor=#f5f5f5;strokeColor=#666666;fontColor=#333333;fontSize=12;labelBackgroundColor=none;" parent="1" vertex="1">
          <mxGeometry x="230" y="570" width="30" height="30" as="geometry" />
        </mxCell>
        <mxCell id="lzGrhlmIn-jtO5XPurMd-20" value="7" style="ellipse;whiteSpace=wrap;html=1;aspect=fixed;fillColor=#d5e8d4;strokeColor=#82b366;fontSize=12;labelBackgroundColor=none;" parent="1" vertex="1">
          <mxGeometry x="370" y="570" width="30" height="30" as="geometry" />
        </mxCell>
        <mxCell id="lzGrhlmIn-jtO5XPurMd-21" value="8" style="ellipse;whiteSpace=wrap;html=1;aspect=fixed;fillColor=#d5e8d4;strokeColor=#82b366;fontSize=12;labelBackgroundColor=none;" parent="1" vertex="1">
          <mxGeometry x="452.75" y="580" width="30" height="30" as="geometry" />
        </mxCell>
        <mxCell id="lzGrhlmIn-jtO5XPurMd-23" value="9" style="ellipse;whiteSpace=wrap;html=1;aspect=fixed;fillColor=#d5e8d4;strokeColor=#82b366;fontSize=12;labelBackgroundColor=none;" parent="1" vertex="1">
          <mxGeometry x="300" y="690" width="30" height="30" as="geometry" />
        </mxCell>
        <mxCell id="lzGrhlmIn-jtO5XPurMd-25" value="12" style="ellipse;whiteSpace=wrap;html=1;aspect=fixed;fillColor=#fff2cc;strokeColor=#d6b656;fontSize=12;labelBackgroundColor=none;" parent="1" vertex="1">
          <mxGeometry x="422.75" y="790" width="30" height="30" as="geometry" />
        </mxCell>
        <mxCell id="lzGrhlmIn-jtO5XPurMd-26" value="11" style="ellipse;whiteSpace=wrap;html=1;aspect=fixed;fillColor=#f5f5f5;fontColor=#333333;strokeColor=#666666;fontSize=12;labelBackgroundColor=none;" parent="1" vertex="1">
          <mxGeometry x="180" y="790" width="30" height="30" as="geometry" />
        </mxCell>
        <mxCell id="lzGrhlmIn-jtO5XPurMd-27" value="10" style="ellipse;whiteSpace=wrap;html=1;aspect=fixed;fillColor=#d5e8d4;strokeColor=#82b366;fontSize=12;labelBackgroundColor=none;" parent="1" vertex="1">
          <mxGeometry x="482.75" y="690" width="30" height="30" as="geometry" />
        </mxCell>
        <mxCell id="lzGrhlmIn-jtO5XPurMd-28" value="13" style="ellipse;whiteSpace=wrap;html=1;aspect=fixed;fillColor=#fff2cc;strokeColor=#d6b656;fontSize=12;labelBackgroundColor=none;" parent="1" vertex="1">
          <mxGeometry x="414" y="860" width="30" height="30" as="geometry" />
        </mxCell>
        <mxCell id="lzGrhlmIn-jtO5XPurMd-30" value="xvabatchaccount" style="image;aspect=fixed;html=1;points=[];align=center;fontSize=12;image=img/lib/azure2/compute/Batch_Accounts.svg;labelBackgroundColor=none;" parent="1" vertex="1">
          <mxGeometry x="392" y="990" width="68" height="64" as="geometry" />
        </mxCell>
        <mxCell id="lzGrhlmIn-jtO5XPurMd-32" value="&lt;div style=&quot;font-size: 12px;&quot;&gt;&lt;br style=&quot;font-size: 12px;&quot;&gt;&lt;/div&gt;&lt;div style=&quot;font-size: 12px;&quot;&gt;1 - Faz o upload do arquivo a ser&amp;nbsp;&lt;span style=&quot;font-size: 12px;&quot;&gt;processado&lt;/span&gt;&lt;/div&gt;&lt;div style=&quot;font-size: 12px;&quot;&gt;&lt;br style=&quot;font-size: 12px;&quot;&gt;&lt;/div&gt;2 - Executa o&amp;nbsp;&lt;span style=&quot;text-wrap: nowrap; font-size: 12px;&quot;&gt;orchestrator&lt;/span&gt;&lt;div style=&quot;font-size: 12px;&quot;&gt;&lt;span style=&quot;text-wrap: nowrap; font-size: 12px;&quot;&gt;&lt;br style=&quot;font-size: 12px;&quot;&gt;&lt;/span&gt;&lt;div style=&quot;font-size: 12px;&quot;&gt;&lt;span style=&quot;text-wrap: nowrap; font-size: 12px;&quot;&gt;3 - O&amp;nbsp;&lt;/span&gt;&lt;span style=&quot;text-wrap: nowrap; font-size: 12px;&quot;&gt;orchestrator chama o client&lt;/span&gt;&lt;/div&gt;&lt;div style=&quot;font-size: 12px;&quot;&gt;&lt;span style=&quot;text-wrap: nowrap; font-size: 12px;&quot;&gt;&lt;br style=&quot;font-size: 12px;&quot;&gt;&lt;/span&gt;&lt;/div&gt;&lt;div style=&quot;font-size: 12px;&quot;&gt;&lt;span style=&quot;text-wrap: nowrap; font-size: 12px;&quot;&gt;4 - Consome o arquivo a ser processado&lt;/span&gt;&lt;/div&gt;&lt;div style=&quot;font-size: 12px;&quot;&gt;&lt;span style=&quot;text-wrap: nowrap; font-size: 12px;&quot;&gt;5 - Quebra o arquivo em vários chunks&lt;/span&gt;&lt;/div&gt;&lt;div style=&quot;font-size: 12px;&quot;&gt;&lt;span style=&quot;text-wrap: nowrap; font-size: 12px;&quot;&gt;&lt;br style=&quot;font-size: 12px;&quot;&gt;&lt;/span&gt;&lt;/div&gt;&lt;div style=&quot;font-size: 12px;&quot;&gt;&lt;span style=&quot;text-wrap: nowrap; font-size: 12px;&quot;&gt;6 - O&amp;nbsp;&lt;/span&gt;&lt;span style=&quot;text-wrap: nowrap; font-size: 12px;&quot;&gt;orchestrator chama o worker&lt;/span&gt;&lt;/div&gt;&lt;div style=&quot;font-size: 12px;&quot;&gt;&lt;span style=&quot;text-wrap: nowrap; font-size: 12px;&quot;&gt;&lt;br style=&quot;font-size: 12px;&quot;&gt;&lt;/span&gt;&lt;/div&gt;&lt;div style=&quot;font-size: 12px;&quot;&gt;&lt;span style=&quot;text-wrap: nowrap; font-size: 12px;&quot;&gt;7 - Consome os chunks gerados&lt;/span&gt;&lt;/div&gt;&lt;div style=&quot;font-size: 12px;&quot;&gt;&lt;span style=&quot;text-wrap: nowrap; font-size: 12px;&quot;&gt;8 - Faz o upload no Storage&lt;/span&gt;&lt;/div&gt;&lt;div style=&quot;font-size: 12px;&quot;&gt;&lt;span style=&quot;text-wrap: nowrap; font-size: 12px;&quot;&gt;9 - Cria os Pools e Jobs e executa as tasks&lt;/span&gt;&lt;/div&gt;&lt;div style=&quot;font-size: 12px;&quot;&gt;&lt;span style=&quot;text-wrap: nowrap; font-size: 12px;&quot;&gt;10 - Cada task faz o upload do resultado&lt;/span&gt;&lt;/div&gt;&lt;div style=&quot;font-size: 12px;&quot;&gt;&lt;span style=&quot;text-wrap: nowrap; font-size: 12px;&quot;&gt;&lt;br style=&quot;font-size: 12px;&quot;&gt;&lt;/span&gt;&lt;/div&gt;&lt;div style=&quot;font-size: 12px;&quot;&gt;&lt;span style=&quot;text-wrap: nowrap; font-size: 12px;&quot;&gt;11 - O&amp;nbsp;&lt;/span&gt;&lt;span style=&quot;text-wrap: nowrap; font-size: 12px;&quot;&gt;orchestrator chama o agreggator&lt;/span&gt;&lt;/div&gt;&lt;div style=&quot;font-size: 12px;&quot;&gt;&lt;span style=&quot;text-wrap: nowrap; font-size: 12px;&quot;&gt;&lt;br style=&quot;font-size: 12px;&quot;&gt;&lt;/span&gt;&lt;/div&gt;&lt;div style=&quot;font-size: 12px;&quot;&gt;&lt;span style=&quot;text-wrap: nowrap; font-size: 12px;&quot;&gt;12 - Faz o donload dos arquivos processados&lt;/span&gt;&lt;/div&gt;&lt;div style=&quot;font-size: 12px;&quot;&gt;&lt;span style=&quot;text-wrap: nowrap; font-size: 12px;&quot;&gt;13 - Consolida o e gera o arquivo final&lt;/span&gt;&lt;/div&gt;&lt;div style=&quot;font-size: 12px;&quot;&gt;&lt;span style=&quot;text-wrap: nowrap; font-size: 12px;&quot;&gt;&lt;br style=&quot;font-size: 12px;&quot;&gt;&lt;/span&gt;&lt;/div&gt;&lt;div style=&quot;font-size: 12px;&quot;&gt;&lt;span style=&quot;text-wrap: nowrap; font-size: 12px;&quot;&gt;14 - o&amp;nbsp;&lt;/span&gt;&lt;span style=&quot;text-wrap: nowrap; font-size: 12px;&quot;&gt;orchestrator deleta o Pool e Jobs do Batch&lt;/span&gt;&lt;/div&gt;&lt;div style=&quot;font-size: 12px;&quot;&gt;&lt;br style=&quot;font-size: 12px;&quot;&gt;&lt;/div&gt;&lt;/div&gt;&lt;div style=&quot;font-size: 12px;&quot;&gt;15 - faz o download do arquivo processado&lt;/div&gt;" style="text;html=1;align=left;verticalAlign=middle;whiteSpace=wrap;rounded=0;fontSize=12;labelBackgroundColor=none;" parent="1" vertex="1">
          <mxGeometry x="-300" y="390" width="310" height="370" as="geometry" />
        </mxCell>
        <mxCell id="kDm-gjHPZS9bzdLhj900-2" value="xvajobsfiles&lt;div style=&quot;font-size: 12px;&quot;&gt;&lt;span style=&quot;font-size: 12px;&quot;&gt;output/&lt;/span&gt;monte_carlo_result_aggregated.json&lt;/div&gt;" style="image;aspect=fixed;html=1;points=[];align=center;fontSize=12;image=img/lib/azure2/storage/Storage_Accounts.svg;labelBackgroundColor=none;" vertex="1" parent="1">
          <mxGeometry x="570" y="1110" width="65" height="52" as="geometry" />
        </mxCell>
        <mxCell id="6sl3xVN-tXtJ1G1_XXmB-3" style="edgeStyle=orthogonalEdgeStyle;rounded=0;orthogonalLoop=1;jettySize=auto;html=1;fontSize=12;labelBackgroundColor=none;" edge="1" parent="1" source="6sl3xVN-tXtJ1G1_XXmB-1" target="6sl3xVN-tXtJ1G1_XXmB-2">
          <mxGeometry relative="1" as="geometry" />
        </mxCell>
        <mxCell id="6sl3xVN-tXtJ1G1_XXmB-1" value="monte_carlo_input.json" style="dashed=0;outlineConnect=0;html=1;align=center;labelPosition=center;verticalLabelPosition=bottom;verticalAlign=top;shape=mxgraph.weblogos.json;fontSize=12;labelBackgroundColor=none;" vertex="1" parent="1">
          <mxGeometry x="412.75" y="200" width="50" height="45.8" as="geometry" />
        </mxCell>
        <mxCell id="6sl3xVN-tXtJ1G1_XXmB-2" value="xvajobsfiles&lt;div style=&quot;font-size: 12px;&quot;&gt;&lt;span style=&quot;font-size: 12px;&quot;&gt;input/monte_carlo_input.json&lt;/span&gt;&lt;/div&gt;" style="image;aspect=fixed;html=1;points=[];align=center;fontSize=12;image=img/lib/azure2/storage/Storage_Accounts.svg;labelBackgroundColor=none;" vertex="1" parent="1">
          <mxGeometry x="570" y="196.9" width="65" height="52" as="geometry" />
        </mxCell>
        <mxCell id="6sl3xVN-tXtJ1G1_XXmB-5" value="1" style="ellipse;whiteSpace=wrap;html=1;aspect=fixed;fillColor=#f8cecc;strokeColor=#b85450;fontSize=12;labelBackgroundColor=none;" vertex="1" parent="1">
          <mxGeometry x="220" y="190" width="30" height="30" as="geometry" />
        </mxCell>
        <mxCell id="6sl3xVN-tXtJ1G1_XXmB-7" value="15" style="ellipse;whiteSpace=wrap;html=1;aspect=fixed;fillColor=#f8cecc;strokeColor=#b85450;fontSize=12;labelBackgroundColor=none;" vertex="1" parent="1">
          <mxGeometry x="280" y="1150" width="30" height="30" as="geometry" />
        </mxCell>
      </root>
    </mxGraphModel>
  </diagram>
</mxfile>
